#N canvas 726 23 270 234 10;
#X obj 73 12 inlet~;
#X obj 73 43 modfreqs;
#X obj 89 112 modulate;
#X obj 114 78 modulate;
#X obj 75 144 modulate;
#X obj 75 164 osc~;
#X obj 75 184 outlet~;
#X text 120 11 Algo 4;
#X connect 0 0 1 0;
#X connect 1 0 4 0;
#X connect 1 1 2 0;
#X connect 1 2 3 0;
#X connect 1 3 3 1;
#X connect 2 0 4 1;
#X connect 3 0 2 1;
#X connect 4 0 5 0;
#X connect 5 0 6 0;
