#N canvas 165 23 270 272 10;
#X obj 25 197 outlet~;
#X obj 14 16 inlet~;
#X obj 16 119 *~ 0.5;
#X obj 89 119 *~ 0.5;
#X obj 25 149 +~;
#X obj 14 37 modfreqs;
#X obj 16 95 modulate;
#X obj 89 95 modulate;
#X obj 25 169 osc~;
#X text 68 15 Algo 2;
#X connect 1 0 5 0;
#X connect 2 0 4 0;
#X connect 3 0 4 1;
#X connect 4 0 8 0;
#X connect 5 0 6 0;
#X connect 5 1 6 1;
#X connect 5 1 7 1;
#X connect 5 2 7 0;
#X connect 6 0 2 0;
#X connect 7 0 3 0;
#X connect 8 0 0 0;
