#N canvas 728 208 273 276 10;
#X obj 72 183 outlet~;
#X obj 73 12 inlet~;
#X obj 73 43 modfreqs, f 13;
#X obj 72 79 modulate;
#X obj 72 107 modulate;
#X obj 72 159 osc~;
#X text 117 11 Algo 8;
#X obj 72 132 modulate, f 12;
#X connect 1 0 2 0;
#X connect 2 0 3 0;
#X connect 2 1 3 1;
#X connect 2 2 7 1;
#X connect 2 3 4 1;
#X connect 3 0 4 0;
#X connect 4 0 7 0;
#X connect 5 0 0 0;
#X connect 7 0 5 0;
