#N canvas 732 278 422 299 10;
#X obj 72 181 outlet~;
#X obj 73 12 inlet~;
#X obj 73 43 modfreqs, f 13;
#X obj 98 95 modulate;
#X obj 73 121 modulate;
#X obj 104 151 s~ \$0-fb_1;
#X obj 126 73 r~ \$0-fb_1;
#X obj 72 152 osc~;
#X text 119 12 Algo 7;
#X connect 1 0 2 0;
#X connect 2 0 4 0;
#X connect 2 1 3 0;
#X connect 3 0 4 1;
#X connect 4 0 5 0;
#X connect 4 0 7 0;
#X connect 6 0 3 1;
#X connect 7 0 0 0;
