#N canvas 263 281 270 219 10;
#X obj 71 182 outlet~;
#X obj 73 12 inlet~;
#X obj 73 43 modfreqs;
#X obj 61 78 modulate;
#X obj 68 107 modulate;
#X obj 71 161 osc~;
#X text 120 12 Algo 6;
#X obj 158 72 modulate;
#X obj 137 109 modulate;
#X obj 71 140 modulate;
#X connect 1 0 2 0;
#X connect 2 0 3 0;
#X connect 2 1 3 1;
#X connect 2 2 7 0;
#X connect 2 2 8 1;
#X connect 2 3 4 1;
#X connect 2 3 7 1;
#X connect 3 0 4 0;
#X connect 4 0 9 0;
#X connect 5 0 0 0;
#X connect 7 0 8 0;
#X connect 8 0 9 1;
#X connect 9 0 5 0;
