#N canvas 0 282 262 230 10;
#X obj 73 183 outlet~;
#X obj 73 12 inlet~;
#X obj 73 43 modfreqs;
#X obj 90 82 modulate;
#X obj 146 82 modulate;
#X obj 90 114 modulate;
#X obj 73 140 modulate;
#X obj 73 161 osc~;
#X text 119 12 Algo 5;
#X connect 1 0 2 0;
#X connect 2 0 6 0;
#X connect 2 1 3 0;
#X connect 2 2 4 1;
#X connect 2 2 3 1;
#X connect 2 3 4 0;
#X connect 3 0 5 0;
#X connect 4 0 5 1;
#X connect 5 0 6 1;
#X connect 6 0 7 0;
#X connect 7 0 0 0;
