#N canvas 894 23 546 399 10;
#X obj 30 18 notein;
#X obj 33 100 pack 0 0 0;
#X obj 117 264 *~;
#X obj 117 293 dac~;
#X obj 33 69 poly 8 1;
#X obj 34 136 route 1 2 3 4 5 6 7 8;
#X obj 14 174 note;
#X obj 45 174 note;
#X obj 107 174 note;
#X obj 76 174 note;
#X obj 138 174 note;
#X obj 169 174 note;
#X obj 200 174 note;
#X obj 231 174 note;
#X obj 191 237 r volume;
#X obj 316 98 - 10;
#X obj 351 98 - 10;
#X obj 386 98 - 0.1;
#X obj 351 119 s d;
#X obj 386 119 s s;
#X obj 423 119 s r;
#X obj 316 119 s a;
#X obj 423 98 - 10;
#X obj 466 98 - 1;
#X obj 466 119 s q;
#X obj 290 31 r attack;
#X obj 350 34 r decay;
#X obj 402 33 r sustain;
#X obj 464 32 r release;
#X obj 466 58 r qfactor;
#X connect 0 0 4 0;
#X connect 0 1 4 1;
#X connect 1 0 5 0;
#X connect 2 0 3 0;
#X connect 2 0 3 1;
#X connect 4 0 1 0;
#X connect 4 1 1 1;
#X connect 4 2 1 2;
#X connect 5 0 6 0;
#X connect 5 1 7 0;
#X connect 5 2 9 0;
#X connect 5 3 8 0;
#X connect 5 4 10 0;
#X connect 5 5 11 0;
#X connect 5 6 12 0;
#X connect 5 7 13 0;
#X connect 6 0 2 0;
#X connect 7 0 2 0;
#X connect 8 0 2 0;
#X connect 9 0 2 0;
#X connect 10 0 2 0;
#X connect 11 0 2 0;
#X connect 12 0 2 0;
#X connect 13 0 2 0;
#X connect 14 0 2 1;
#X connect 15 0 21 0;
#X connect 16 0 18 0;
#X connect 17 0 19 0;
#X connect 22 0 20 0;
#X connect 23 0 24 0;
#X connect 25 0 15 0;
#X connect 26 0 16 0;
#X connect 27 0 17 0;
#X connect 28 0 22 0;
#X connect 29 0 23 0;
