#N canvas 359 327 607 186 10;
#X obj 57 109 outlet~;
#X obj 262 17 inlet~;
#X obj 57 59 algo1;
#N canvas 222 329 848 236 multiplex 0;
#X obj 40 33 inlet~;
#X obj 40 200 outlet~;
#X obj 750 33 inlet;
#X obj 750 53 s \$0-sel;
#X obj 55 55 r \$0-sel;
#X obj 55 75 == 0;
#X obj 40 154 throw~ \$0-sig;
#X obj 40 180 catch~ \$0-sig;
#X obj 40 133 *~;
#X floatatom 55 95 5 0 0 0 - - -;
#X obj 130 33 inlet~;
#X obj 145 55 r \$0-sel;
#X obj 130 154 throw~ \$0-sig;
#X obj 130 133 *~;
#X floatatom 145 95 5 0 0 0 - - -;
#X obj 220 33 inlet~;
#X obj 235 55 r \$0-sel;
#X obj 220 154 throw~ \$0-sig;
#X obj 220 133 *~;
#X floatatom 235 95 5 0 0 0 - - -;
#X obj 310 33 inlet~;
#X obj 325 55 r \$0-sel;
#X obj 310 154 throw~ \$0-sig;
#X obj 310 133 *~;
#X floatatom 325 95 5 0 0 0 - - -;
#X obj 400 33 inlet~;
#X obj 415 55 r \$0-sel;
#X obj 400 154 throw~ \$0-sig;
#X obj 400 133 *~;
#X floatatom 415 95 5 0 0 0 - - -;
#X obj 490 33 inlet~;
#X obj 505 55 r \$0-sel;
#X obj 490 154 throw~ \$0-sig;
#X obj 490 133 *~;
#X floatatom 505 95 5 0 0 0 - - -;
#X obj 580 33 inlet~;
#X obj 595 55 r \$0-sel;
#X obj 580 154 throw~ \$0-sig;
#X obj 580 133 *~;
#X floatatom 595 95 5 0 0 0 - - -;
#X obj 670 33 inlet~;
#X obj 685 55 r \$0-sel;
#X obj 670 154 throw~ \$0-sig;
#X obj 670 133 *~;
#X floatatom 685 95 5 0 0 0 - - -;
#X obj 145 75 == 1;
#X obj 235 75 == 2;
#X obj 325 75 == 3;
#X obj 415 75 == 4;
#X obj 505 75 == 5;
#X obj 595 75 == 6;
#X obj 685 75 == 7;
#X connect 0 0 8 0;
#X connect 2 0 3 0;
#X connect 4 0 5 0;
#X connect 5 0 9 0;
#X connect 7 0 1 0;
#X connect 8 0 6 0;
#X connect 9 0 8 1;
#X connect 10 0 13 0;
#X connect 11 0 45 0;
#X connect 13 0 12 0;
#X connect 14 0 13 1;
#X connect 15 0 18 0;
#X connect 16 0 46 0;
#X connect 18 0 17 0;
#X connect 19 0 18 1;
#X connect 20 0 23 0;
#X connect 21 0 47 0;
#X connect 23 0 22 0;
#X connect 24 0 23 1;
#X connect 25 0 28 0;
#X connect 26 0 48 0;
#X connect 28 0 27 0;
#X connect 29 0 28 1;
#X connect 30 0 33 0;
#X connect 31 0 49 0;
#X connect 33 0 32 0;
#X connect 34 0 33 1;
#X connect 35 0 38 0;
#X connect 36 0 50 0;
#X connect 38 0 37 0;
#X connect 39 0 38 1;
#X connect 40 0 43 0;
#X connect 41 0 51 0;
#X connect 43 0 42 0;
#X connect 44 0 43 1;
#X connect 45 0 14 0;
#X connect 46 0 19 0;
#X connect 47 0 24 0;
#X connect 48 0 29 0;
#X connect 49 0 34 0;
#X connect 50 0 39 0;
#X connect 51 0 44 0;
#X restore 57 86 pd multiplex;
#X f 70;
#X obj 474 60 r algosel;
#X obj 109 59 algo2;
#X obj 161 59 algo3;
#X obj 213 59 algo4;
#X obj 265 59 algo5;
#X obj 317 59 algo6;
#X obj 421 62 algo8;
#X obj 369 61 algo7;
#X connect 1 0 2 0;
#X connect 1 0 5 0;
#X connect 1 0 6 0;
#X connect 1 0 7 0;
#X connect 1 0 8 0;
#X connect 1 0 9 0;
#X connect 1 0 10 0;
#X connect 1 0 11 0;
#X connect 2 0 3 0;
#X connect 3 0 0 0;
#X connect 4 0 3 8;
#X connect 5 0 3 1;
#X connect 6 0 3 2;
#X connect 7 0 3 3;
#X connect 8 0 3 4;
#X connect 9 0 3 5;
#X connect 10 0 3 7;
#X connect 11 0 3 6;
