#N canvas 519 171 780 344 10;
#X obj 10 74 cnv 15 250 250 empty empty empty 20 12 0 14 -228856 -66577
0;
#X obj 261 74 cnv 15 250 250 empty empty empty 20 12 0 14 -261682 -66577
0;
#X obj 41 115 hradio 20 1 1 8 algosel empty Algorithm 0 -8 0 10 -262144
-1 -1 6;
#X text 47 134 1;
#X text 66 135 2;
#X text 87 135 3;
#X obj 41 170 hradio 15 1 1 8 amult empty A_Ratio 0 -8 0 10 -262144
-1 -1 5;
#X obj 41 205 hradio 15 1 1 8 bmult empty B_Ratio 0 -8 0 10 -262144
-1 -1 3;
#X obj 41 240 hradio 15 1 1 8 dmult empty C_Ratio 0 -8 0 10 -262144
-1 -1 4;
#X obj 41 275 hradio 15 1 1 10 modindex empty Modulation_Index 0 -8
0 10 -262144 -1 -1 3;
#X text 107 136 4;
#X text 126 136 5;
#X text 144 137 6;
#X text 167 137 7;
#X text 187 136 8;
#X floatatom 161 170 5 0 0 0 - am -;
#X floatatom 161 205 5 0 0 0 - bm -;
#X floatatom 161 240 5 0 0 0 - dm -;
#X floatatom 191 275 5 0 0 0 - mind -;
#X floatatom 204 119 5 0 0 0 - algosel -;
#X obj 330 141 vsl 15 128 12 1010 1 1 attack empty A 0 -9 0 10 -262144
-1 -1 0 1;
#X obj 365 141 vsl 15 128 10 1010 1 1 decay empty D 0 -9 0 10 -262144
-1 -1 9600 1;
#X obj 400 141 vsl 15 128 0.1 1 1 1 sustain empty S 0 -9 0 10 -262144
-1 -1 0 1;
#X obj 435 142 vsl 15 128 12 1010 1 1 release empty R 0 -9 0 10 -262144
-1 -1 6400 1;
#X text 327 107 Dynamics ADSR;
#X obj 512 75 cnv 15 250 250 empty empty empty 20 12 0 14 -204800 -66577
0;
#X obj 579 140 hsl 128 15 20 20000 1 1 start empty Start -2 -8 0 10
-262144 -1 -1 7700 1;
#X obj 579 175 hsl 128 15 20 20000 1 1 end empty End -2 -8 0 10 -262144
-1 -1 1600 1;
#X obj 579 210 hsl 128 15 10 10000 1 1 time empty Time -2 -8 0 10 -262144
-1 -1 4500 1;
#X obj 579 245 hsl 128 15 1 256 1 1 qfactor empty Q -2 -8 0 10 -262144
-1 -1 2000 1;
#X text 573 104 Filter;
#X obj 10 14 cnv 15 752 60 empty empty empty 20 12 0 14 -191407 -66577
0;
#X obj 37 42 hsl 128 15 0 1 0 1 volume empty Volume -2 -8 0 10 -262144
-1 -1 12700 1;
#X text 693 56 Connor Rog;
#X obj 716 21 engine;
#X text 269 35 FM101 - Rudimentary Frequency Modulator;
