#N canvas 1033 36 496 353 10;
#X obj 103 36 r amult;
#X obj 194 35 r bmult;
#X obj 279 37 r dmult;
#X obj 112 70 + 1;
#X obj 199 67 + 1;
#X obj 286 68 + 1;
#X obj 112 94 / 4;
#X obj 199 95 / 4;
#X obj 285 94 / 4;
#X text 111 238 A freq;
#X text 194 236 B freq;
#X text 289 236 D freq;
#X text 33 70 C freq;
#X text 29 233 C freq;
#X obj 28 214 outlet~;
#X obj 110 214 outlet~;
#X obj 194 212 outlet~;
#X obj 286 212 outlet~;
#X obj 37 88 inlet~;
#X obj 107 144 *~;
#X obj 193 145 *~;
#X obj 284 144 *~;
#X obj 131 176 s am;
#X obj 225 175 s bm;
#X obj 323 173 s dm;
#X connect 0 0 3 0;
#X connect 1 0 4 0;
#X connect 2 0 5 0;
#X connect 3 0 6 0;
#X connect 4 0 7 0;
#X connect 5 0 8 0;
#X connect 6 0 19 1;
#X connect 6 0 22 0;
#X connect 7 0 20 1;
#X connect 7 0 23 0;
#X connect 8 0 21 1;
#X connect 8 0 24 0;
#X connect 18 0 14 0;
#X connect 18 0 19 0;
#X connect 18 0 20 0;
#X connect 18 0 21 0;
#X connect 19 0 15 0;
#X connect 20 0 16 0;
#X connect 21 0 17 0;
