#N canvas 353 174 450 300 10;
#X obj 198 28 r modindex;
#X obj 155 28 inlet~;
#X text 58 10 Carrier Freq;
#X obj 74 126 +~;
#X obj 74 28 inlet~;
#X text 140 7 Modulator Freq;
#X obj 155 55 osc~;
#X obj 154 92 *~;
#X obj 74 156 outlet~;
#X text 127 156 Modulated Freq;
#X obj 198 53 * 50;
#X obj 198 92 s mind;
#X connect 0 0 10 0;
#X connect 1 0 6 0;
#X connect 3 0 8 0;
#X connect 4 0 3 0;
#X connect 6 0 7 0;
#X connect 7 0 3 1;
#X connect 10 0 7 1;
#X connect 10 0 11 0;
