#N canvas 612 199 253 277 10;
#X obj 28 11 inlet;
#X obj 28 37 unpack 0 0;
#X obj 28 172 *~;
#X obj 28 228 outlet~;
#X obj 136 113 / 127;
#X obj 28 144 *~;
#X obj 137 80 sel 0;
#X obj 148 167 r q;
#X obj 28 202 vcf~;
#X obj 177 130 filter;
#X obj 96 103 adsr;
#X obj 28 97 fm;
#X obj 28 61 mtof~;
#X connect 0 0 1 0;
#X connect 1 0 12 0;
#X connect 1 1 6 0;
#X connect 1 1 10 0;
#X connect 2 0 8 0;
#X connect 4 0 2 1;
#X connect 5 0 2 0;
#X connect 6 1 4 0;
#X connect 6 1 9 0;
#X connect 7 0 8 2;
#X connect 8 0 3 0;
#X connect 9 0 8 1;
#X connect 10 0 5 1;
#X connect 11 0 5 0;
#X connect 12 0 11 0;
